<?xml version="1.0" standalone="no"?>
<!DOCTYPE svg PUBLIC "-//W3C//DTD SVG 20010904//EN"
 "http://www.w3.org/TR/2001/REC-SVG-20010904/DTD/svg10.dtd">
<svg version="1.0" xmlns="http://www.w3.org/2000/svg"
 width="800.000000pt" height="800.000000pt" viewBox="0 0 800.000000 800.000000"
 preserveAspectRatio="xMidYMid meet">

<g transform="translate(0.000000,800.000000) scale(0.100000,-0.100000)"
fill="#000000" stroke="none">
<path d="M3705 7740 c-589 -53 -1122 -222 -1615 -513 -931 -552 -1590 -1497
-1779 -2552 -45 -254 -55 -380 -55 -675 0 -365 27 -592 109 -922 358 -1427
1550 -2530 3000 -2773 239 -40 367 -50 640 -50 274 1 398 11 634 50 1554 264
2795 1506 3056 3060 40 236 50 368 50 635 0 267 -10 399 -50 635 -258 1536
-1470 2767 -3005 3051 -74 13 -191 32 -260 40 -148 18 -582 26 -725 14z m710
-515 c61 -8 157 -24 215 -35 1080 -212 1986 -968 2393 -1996 212 -535 275
-1116 186 -1704 -166 -1087 -907 -2040 -1929 -2478 -106 -46 -378 -142 -401
-142 -5 0 -9 257 -9 659 0 413 -4 689 -11 738 -13 97 -60 241 -101 308 -16 27
-50 71 -75 96 l-44 46 93 12 c150 19 345 60 458 98 299 100 559 272 711 472
70 92 171 303 214 446 97 322 116 744 46 1018 -46 181 -149 383 -261 510 -31
35 -41 54 -37 70 3 12 17 67 32 122 24 86 28 120 28 240 1 160 -16 262 -69
427 l-35 107 -44 7 c-152 22 -465 -93 -782 -288 l-115 -71 -112 26 c-473 111
-980 115 -1441 11 -60 -14 -121 -27 -135 -30 -22 -5 -31 2 -64 51 -60 86 -149
161 -251 210 -142 69 -222 87 -415 92 -218 6 -237 1 -272 -62 -55 -102 -80
-215 -85 -385 -6 -172 8 -276 52 -399 14 -38 25 -71 25 -73 0 -3 -26 -37 -57
-76 -245 -300 -326 -645 -272 -1152 30 -282 134 -577 272 -778 59 -86 209
-232 298 -291 238 -156 537 -259 876 -302 l92 -12 -45 -51 c-25 -28 -63 -87
-85 -131 -36 -74 -79 -213 -79 -257 0 -43 -195 -96 -380 -105 -140 -6 -209 6
-302 53 -124 63 -209 148 -320 319 -38 58 -92 125 -130 161 -111 104 -272 184
-368 184 -97 0 -145 -131 -68 -184 119 -84 156 -116 213 -188 72 -91 118 -172
185 -328 53 -121 90 -179 154 -238 150 -138 313 -190 626 -199 159 -5 233 0
348 23 l32 7 0 -462 c0 -253 -3 -461 -7 -461 -21 0 -256 79 -363 122 -1017
411 -1764 1300 -1980 2358 -51 251 -63 379 -63 660 0 355 39 633 133 940 296
963 998 1722 1931 2088 306 120 545 175 944 216 89 9 545 -4 650 -19z"/>
</g>
</svg>
